<?xml version="1.0" encoding="UTF-8"?>
<svg width="529px" height="513px" viewBox="0 0 529 513" version="1.1" xmlns="http://www.w3.org/2000/svg" xmlns:xlink="http://www.w3.org/1999/xlink">
    <title>Untitled</title>
    <g id="Page-1" stroke="none" stroke-width="1" fill="none" fill-rule="evenodd">
        <g id="custom-type-white" transform="translate(24.1436, 0)" fill="#FFFFFF" fill-rule="nonzero">
            <path d="M292.756445,18 C287.456445,7 276.256445,0 263.956445,0 C251.656445,0 240.556445,7 235.156445,18 L170.856445,150.3 L27.2564448,171.5 C15.2564448,173.3 5.25644478,181.7 1.55644478,193.2 C-2.14355522,204.7 0.856444781,217.4 9.45644478,225.9 L113.656445,329 L89.0564448,474.7 C87.0564448,486.7 92.0564448,498.9 101.956445,506 C111.856445,513.1 124.956445,514 135.756445,508.3 L264.056445,439.8 L392.356445,508.3 C403.156445,514 416.256445,513.2 426.156445,506 C436.056445,498.8 441.056445,486.7 439.056445,474.7 L414.356445,329 L518.556445,225.9 C527.156445,217.4 530.256445,204.7 526.456445,193.2 C522.656445,181.7 512.756445,173.3 500.756445,171.5 L357.056445,150.3 L292.756445,18 Z" id="Path"></path>
        </g>
    </g>
</svg>