<?xml version="1.0" encoding="UTF-8"?>
<svg width="512px" height="448px" viewBox="0 0 512 448" version="1.1" xmlns="http://www.w3.org/2000/svg" xmlns:xlink="http://www.w3.org/1999/xlink">
    <title>image-type-black</title>
    <g id="Page-1" stroke="none" stroke-width="1" fill="none" fill-rule="evenodd">
        <g id="image-type-black" fill="#FFFFFF" fill-rule="nonzero">
            <path d="M0,64 C0,28.7 28.7,0 64,0 L448,0 C483.3,0 512,28.7 512,64 L512,384 C512,419.3 483.3,448 448,448 L64,448 C28.7,448 0,419.3 0,384 L0,64 Z M323.8,170.5 C319.3,163.9 311.9,160 304,160 C296.1,160 288.6,163.9 284.2,170.5 L197.2,298.1 L170.7,265 C166.1,259.3 159.2,256 152,256 C144.8,256 137.8,259.3 133.3,265 L69.3,345 C63.5,352.2 62.4,362.1 66.4,370.4 C70.4,378.7 78.8,384 88,384 L184,384 L216,384 L424,384 C432.9,384 441.1,379.1 445.2,371.2 C449.3,363.3 448.8,353.8 443.8,346.5 L323.8,170.5 Z M112,160 C138.509668,160 160,138.509668 160,112 C160,85.490332 138.509668,64 112,64 C85.490332,64 64,85.490332 64,112 C64,138.509668 85.490332,160 112,160 Z" id="Shape"></path>
        </g>
    </g>
</svg>