<?xml version="1.0" encoding="UTF-8"?>
<svg width="604.35px" height="470.31035px" viewBox="0 0 604.35 470.31035" version="1.1" xmlns="http://www.w3.org/2000/svg" xmlns:xlink="http://www.w3.org/1999/xlink">
    <title>link-type-black</title>
    <g id="Page-1" stroke="none" stroke-width="1" fill="none" fill-rule="evenodd">
        <g id="link-type-black" fill="#FFFFFF" fill-rule="nonzero">
            <path d="M561.975,246.855175 C618.475,190.355175 618.475,98.8551749 561.975,42.3551749 C511.975,-7.64482506 433.175,-14.1448251 375.675,26.9551749 L374.075,28.0551749 C359.675,38.3551749 356.375,58.3551749 366.675,72.6551749 C376.975,86.9551749 396.975,90.3551749 411.275,80.0551749 L412.875,78.9551749 C444.975,56.0551749 488.875,59.6551749 516.675,87.5551749 C548.175,119.055175 548.175,170.055175 516.675,201.555175 L404.475,313.955175 C372.975,345.455175 321.975,345.455175 290.475,313.955175 C262.575,286.055175 258.975,242.155175 281.875,210.155175 L282.975,208.555175 C293.275,194.155175 289.875,174.155175 275.575,163.955175 C261.275,153.755175 241.175,157.055175 230.975,171.355175 L229.875,172.955175 C188.675,230.355175 195.175,309.155175 245.175,359.155175 C301.675,415.655175 393.175,415.655175 449.675,359.155175 L561.975,246.855175 Z M42.375,223.455175 C-14.125,279.955175 -14.125,371.455175 42.375,427.955175 C92.375,477.955175 171.175,484.455175 228.675,443.355175 L230.275,442.255175 C244.675,431.955175 247.975,411.955175 237.675,397.655175 C227.375,383.355175 207.375,379.955175 193.075,390.255175 L191.475,391.355175 C159.375,414.255175 115.475,410.655175 87.675,382.755175 C56.175,351.155175 56.175,300.155175 87.675,268.655175 L199.875,156.355175 C231.375,124.855175 282.375,124.855175 313.875,156.355175 C341.775,184.255175 345.375,228.155175 322.475,260.255175 L321.375,261.855175 C311.075,276.255175 314.475,296.255175 328.775,306.455175 C343.075,316.655175 363.175,313.355175 373.375,299.055175 L374.475,297.455175 C415.675,239.955175 409.175,161.155175 359.175,111.155175 C302.675,54.6551749 211.175,54.6551749 154.675,111.155175 L42.375,223.455175 Z" id="Shape"></path>
        </g>
    </g>
</svg>