<?xml version="1.0" encoding="UTF-8"?>
<svg width="640.000719px" height="393.8px" viewBox="0 0 640.000719 393.8" version="1.1" xmlns="http://www.w3.org/2000/svg" xmlns:xlink="http://www.w3.org/1999/xlink">
    <title>markdown-type-black</title>
    <g id="Page-1" stroke="none" stroke-width="1" fill="none" fill-rule="evenodd">
        <g id="markdown-type-black" fill="#FFFFFF" fill-rule="nonzero">
            <path d="M593.8,0 L46.2,0 C20.7,0 0,20.7 0,46.1 L0,347.6 C0,373.1 20.7,393.8 46.2,393.8 L593.9,393.8 C619.4,393.8 640.1,373.1 640.000361,347.7 L640.000361,46.1 C640.000361,20.7 619.3,0 593.8,0 Z M338.5,301.5 L277,301.5 L277,181.5 L215.5,258.4 L154,181.5 L154,301.5 L92.3,301.5 L92.3,92.3 L153.8,92.3 L215.3,169.2 L276.8,92.3 L338.3,92.3 L338.3,301.5 L338.5,301.5 Z M473.8,304.6 L381.5,196.9 L443,196.9 L443,92.3 L504.5,92.3 L504.5,196.9 L566,196.9 L473.8,304.6 Z" id="Shape"></path>
        </g>
    </g>
</svg>