<?xml version="1.0" encoding="UTF-8"?>
<svg width="512px" height="512px" viewBox="0 0 512 512" version="1.1" xmlns="http://www.w3.org/2000/svg" xmlns:xlink="http://www.w3.org/1999/xlink">
    <title>unknown-type-black</title>
    <g id="Page-1" stroke="none" stroke-width="1" fill="none" fill-rule="evenodd">
        <g id="unknown-type-black" fill="#FFFFFF" fill-rule="nonzero">
            <path d="M256,512 C397.384896,512 512,397.384896 512,256 C512,114.615104 397.384896,0 256,0 C114.615104,0 0,114.615104 0,256 C0,397.384896 114.615104,512 256,512 Z M169.8,165.3 C177.7,143 198.9,128 222.6,128 L280.9,128 C315.8,128 344,156.3 344,191.1 C344,213.7 331.9,234.6 312.3,245.9 L280,264.4 C279.8,277.4 269.1,288 256,288 C242.7,288 232,277.3 232,264 L232,250.5 C232,241.9 236.6,234 244.1,229.7 L288.4,204.3 C293.1,201.6 296,196.6 296,191.2 C296,182.8 289.2,176.1 280.9,176.1 L222.6,176.1 C219.2,176.1 216.2,178.2 215.1,181.4 L214.7,182.6 C210.3,195.1 196.5,201.6 184.1,197.2 C171.7,192.8 165.1,179 169.5,166.6 L169.9,165.4 L169.8,165.3 Z M224,352 C224,334.326888 238.326888,320 256,320 C273.673112,320 288,334.326888 288,352 C288,369.673112 273.673112,384 256,384 C238.326888,384 224,369.673112 224,352 Z" id="Shape"></path>
        </g>
    </g>
</svg>